<?xml version="1.0" encoding="utf-8"?>
<!-- Generator: Adobe Illustrator 17.1.0, SVG Export Plug-In . SVG Version: 6.00 Build 0)  -->
<!DOCTYPE svg PUBLIC "-//W3C//DTD SVG 1.1//EN" "http://www.w3.org/Graphics/SVG/1.1/DTD/svg11.dtd">
<svg version="1.1" id="Layer_1" xmlns="http://www.w3.org/2000/svg" xmlns:xlink="http://www.w3.org/1999/xlink" x="0px" y="0px"
	 viewBox="0 0 612 792" enable-background="new 0 0 612 792" xml:space="preserve">
<g>
	<g>
		<g>
			<defs>
				<rect id="SVGID_1_" width="612" height="345"/>
			</defs>
			<clipPath id="SVGID_2_">
				<use xlink:href="#SVGID_1_"  overflow="visible"/>
			</clipPath>
			<g clip-path="url(#SVGID_2_)">
				<path id="path-1" d="M517.4,442.4v-22.3c40.8-1.9,72.3-34.3,72.3-75.1c0-41.7-34.3-76-76-76s-76,34.3-76,76
					c0,39.9,30.6,72.3,69.5,75.1v22.3c-37.1-1.9-68.6-23.2-84.4-54.7C383,452.6,310.6,496.1,228.1,496.1C102,496.1,0,394.1,0,268
					C0,141,102,39,229,39c123.3,0,224.4,98.3,228.1,221.6c15.8-10.2,35.2-16.7,55.6-16.7c54.7,0,99.2,44.5,99.2,99.2
					C612,396.9,570.3,440.5,517.4,442.4z M229,64C116.8,64,26,154.9,26,267.1s90.8,203.1,203,203.1c82.5,0,153-49.1,184.5-118.7
					c0-2.8,0-5.6,0-9.3c0-6.5,0.9-13,1.9-19.5l-165.1-34.3h-3.7c-4.6,3.7-10.2,6.5-16.7,6.5c-13.9,0-25-11.1-25-25
					c0-10.2,5.6-18.5,13.9-22.3c-2.8-0.9-4.6-1.9-0.9-1.9l0.9,1.9l0,0l-0.9-1.9c0.9,0,1.9,0,2.8,0l2.8-4.6l1.9,0.9l70.5-166
					C275.4,68.7,252.2,64,229,64z M321.8,86.3l-73.3,166c0.9,0.9,2.8,2.8,3.7,4.6l0,0v0.9c0.9,0.9,0.9,1.9,0.9,2.8h4.6v0.9
					l164.1,38.9c1.9-4.6,4.6-9.3,8.3-13.9c0.9-6.5,0.9-12.1,0.9-18.5C432.1,189.2,387.6,120.6,321.8,86.3z M517.4,442.4v51h-9.3v-51
					c1.9,0,2.8,0,4.6,0S515.6,442.4,517.4,442.4z M508.1,420.1v-64c1.9,0.9,2.8,0.9,4.6,0.9c1.8,0,2.8,0,4.6-0.9v64
					c-0.9,0-1.9,0-2.8,0C511.9,421,510,420.1,508.1,420.1z M501.7,346.9c0-6.5,4.6-11.1,11.1-11.1c6.5,0,11.1,4.6,11.1,11.1
					c0,4.6-2.8,8.3-6.5,10.2v-8.3h-9.3v8.3C504.4,354.3,501.7,350.6,501.7,346.9z M558.2,502.6h-50.1v-2.8h9.3v-6.5h40.8V502.6z
					 M319.9,586.1c-7.4,0-13.9-6.5-13.9-13.9v-46.4c0-7.4,6.5-13.9,13.9-13.9s13.9,6.5,13.9,13.9v46.4
					C333.8,579.6,327.3,586.1,319.9,586.1z M333.8,655.6c0,7.4-6.5,13.9-13.9,13.9S306,663,306,655.6v-37.1
					c0-7.4,6.5-13.9,13.9-13.9s13.9,6.5,13.9,13.9V655.6z M289.3,675.1l30.6,32.5l30.6-32.5c6.5-7.4,17.6-7.4,25,0
					c6.5,7.4,6.5,19.5,0,26.9l-42.7,46.4c-6.5,7.4-17.6,7.4-25,0L265.2,702c-6.5-7.4-6.5-19.5,0-26.9
					C271.7,667.7,282.8,667.7,289.3,675.1z"/>
				<rect id="_x3C_Slice_x3E_" y="345" fill="none" width="612" height="408"/>
			</g>
		</g>
	</g>
	<g>
		<g>
			<defs>
				<rect id="SVGID_3_" y="345" width="612" height="409.9"/>
			</defs>
			<clipPath id="SVGID_4_">
				<use xlink:href="#SVGID_3_"  overflow="visible"/>
			</clipPath>
			<g clip-path="url(#SVGID_4_)">
				<path id="path-1_1_" d="M517.4,444.2V422c40.8-1.9,72.3-34.3,72.3-75.1c0-41.7-34.3-76-76-76s-76,34.3-76,76
					c0,39.9,30.6,72.3,69.5,75.1v22.3c-37.1-1.9-68.6-23.2-84.4-54.7C383,454.4,310.6,498,228.1,498C102,498,0,396,0,269.9
					c0-127,102-229,229-229c123.3,0,224.4,98.3,228.1,221.6c15.8-10.2,35.2-16.7,55.6-16.7c54.7,0,99.2,44.5,99.2,99.2
					C612,398.8,570.3,442.4,517.4,444.2z M229,65.9C116.8,65.9,26,156.8,26,269S116.8,472,229,472c82.5,0,153-49.1,184.5-118.7
					c0-2.8,0-5.6,0-9.3c0-6.5,0.9-13,1.9-19.5l-165.1-34.3h-3.7c-4.6,3.7-10.2,6.5-16.7,6.5c-13.9,0-25-11.1-25-25
					c0-10.2,5.6-18.5,13.9-22.3c-2.8-0.9-4.6-1.9-0.9-1.9l0.9,1.9l0,0l-0.9-1.9c0.9,0,1.9,0,2.8,0l2.8-4.6l1.9,0.9l70.5-166
					C275.4,70.5,252.2,65.9,229,65.9z M321.8,88.1l-73.3,166c0.9,0.9,2.8,2.8,3.7,4.6l0,0v0.9c0.9,0.9,0.9,1.9,0.9,2.8h4.6v0.9
					l164.1,38.9c1.9-4.6,4.6-9.3,8.3-13.9c0.9-6.5,0.9-12.1,0.9-18.5C432.1,191.1,387.6,122.5,321.8,88.1z M517.4,444.2v51h-9.3v-51
					c1.9,0,2.8,0,4.6,0S515.6,444.2,517.4,444.2z M508.1,422v-64c1.9,0.9,2.8,0.9,4.6,0.9s2.8,0,4.6-0.9v64c-0.9,0-1.9,0-2.8,0
					C511.9,422.9,510,422,508.1,422z M501.7,348.7c0-6.5,4.6-11.1,11.1-11.1s11.1,4.6,11.1,11.1c0,4.6-2.8,8.3-6.5,10.2v-8.3h-9.3
					v8.3C504.4,356.1,501.7,352.4,501.7,348.7z M558.2,504.5h-50.1v-2.8h9.3v-6.5h40.8V504.5z M319.9,587.9
					c-7.4,0-13.9-6.5-13.9-13.9v-46.4c0-7.4,6.5-13.9,13.9-13.9s13.9,6.5,13.9,13.9V574C333.8,581.5,327.3,587.9,319.9,587.9z
					 M333.8,657.5c0,7.4-6.5,13.9-13.9,13.9s-13.9-6.5-13.9-13.9v-37.1c0-7.4,6.5-13.9,13.9-13.9s13.9,6.5,13.9,13.9V657.5z
					 M289.3,677l30.6,32.5l30.6-32.5c6.5-7.4,17.6-7.4,25,0c6.5,7.4,6.5,19.5,0,26.9l-42.7,46.4c-6.5,7.4-17.6,7.4-25,0l-42.7-46.4
					c-6.5-7.4-6.5-19.5,0-26.9C271.7,669.5,282.8,669.5,289.3,677z"/>
			</g>
		</g>
	</g>
</g>
</svg>
